<mxfile host="app.diagrams.net" agent="Mozilla/5.0 (Windows NT 10.0; Win64; x64) AppleWebKit/537.36 (KHTML, like Gecko) Chrome/131.0.0.0 Safari/537.36" version="26.0.6">
  <diagram name="Page-1" id="lZM-yYQYriFztQueQset">
    <mxGraphModel dx="1246" dy="1623" grid="1" gridSize="10" guides="1" tooltips="1" connect="1" arrows="1" fold="1" page="1" pageScale="1" pageWidth="827" pageHeight="1169" math="0" shadow="0">
      <root>
        <mxCell id="0" />
        <mxCell id="1" parent="0" />
        <mxCell id="xCYvF6q1Z4s7tQrL5I1I-10" value="Customer" style="swimlane;childLayout=stackLayout;horizontal=1;startSize=50;horizontalStack=0;rounded=1;fontSize=14;fontStyle=0;strokeWidth=2;resizeParent=0;resizeLast=1;shadow=0;dashed=0;align=center;arcSize=4;whiteSpace=wrap;html=1;" parent="1" vertex="1">
          <mxGeometry x="320" y="-220" width="160" height="210" as="geometry" />
        </mxCell>
        <mxCell id="xCYvF6q1Z4s7tQrL5I1I-11" value="customer_id(PK)&lt;div&gt;first_name&lt;br&gt;last_name&lt;br&gt;email&lt;/div&gt;&lt;div&gt;phone&lt;/div&gt;&lt;div&gt;address&lt;/div&gt;&lt;div&gt;picture&lt;/div&gt;&lt;div&gt;date_of_birth&lt;/div&gt;&lt;div&gt;gender&lt;/div&gt;&lt;div&gt;user_id(FK)&lt;/div&gt;&lt;div&gt;&lt;br&gt;&lt;/div&gt;" style="align=left;strokeColor=none;fillColor=none;spacingLeft=4;fontSize=12;verticalAlign=top;resizable=0;rotatable=0;part=1;html=1;" parent="xCYvF6q1Z4s7tQrL5I1I-10" vertex="1">
          <mxGeometry y="50" width="160" height="160" as="geometry" />
        </mxCell>
        <mxCell id="xCYvF6q1Z4s7tQrL5I1I-14" value="Loan Application" style="swimlane;childLayout=stackLayout;horizontal=1;startSize=50;horizontalStack=0;rounded=1;fontSize=14;fontStyle=0;strokeWidth=2;resizeParent=0;resizeLast=1;shadow=0;dashed=0;align=center;arcSize=4;whiteSpace=wrap;html=1;" parent="1" vertex="1">
          <mxGeometry x="550" y="5" width="160" height="260" as="geometry" />
        </mxCell>
        <mxCell id="xCYvF6q1Z4s7tQrL5I1I-15" value="loan_id(PK)&lt;div&gt;loan_type&lt;/div&gt;&lt;div&gt;full_name&lt;/div&gt;&lt;div&gt;date_of_birth&lt;/div&gt;&lt;div&gt;gender&lt;/div&gt;&lt;div&gt;martial_status&lt;/div&gt;&lt;div&gt;contact_info&lt;/div&gt;&lt;div&gt;address&lt;/div&gt;&lt;div&gt;employement_details[ ]&lt;/div&gt;&lt;div&gt;financial_info[ ]&lt;/div&gt;&lt;div&gt;assets[ ]&lt;/div&gt;&lt;div&gt;references[ ]&lt;/div&gt;&lt;div&gt;loan_amount&lt;/div&gt;&lt;div&gt;customer_id(FK)&lt;/div&gt;" style="align=left;strokeColor=none;fillColor=none;spacingLeft=4;fontSize=12;verticalAlign=top;resizable=0;rotatable=0;part=1;html=1;" parent="xCYvF6q1Z4s7tQrL5I1I-14" vertex="1">
          <mxGeometry y="50" width="160" height="210" as="geometry" />
        </mxCell>
        <UserObject label="OnetoMany" placeholders="1" name="Variable" id="xCYvF6q1Z4s7tQrL5I1I-31">
          <mxCell style="text;html=1;strokeColor=none;fillColor=none;align=center;verticalAlign=middle;whiteSpace=wrap;overflow=hidden;" parent="1" vertex="1">
            <mxGeometry x="160" y="-30" width="80" height="20" as="geometry" />
          </mxCell>
        </UserObject>
        <mxCell id="xCYvF6q1Z4s7tQrL5I1I-37" value="" style="endArrow=classic;html=1;rounded=0;" parent="1" edge="1">
          <mxGeometry width="50" height="50" relative="1" as="geometry">
            <mxPoint x="120" y="250" as="sourcePoint" />
            <mxPoint x="120" y="250" as="targetPoint" />
          </mxGeometry>
        </mxCell>
        <mxCell id="xCYvF6q1Z4s7tQrL5I1I-67" value="Loan Approval" style="swimlane;childLayout=stackLayout;horizontal=1;startSize=50;horizontalStack=0;rounded=1;fontSize=14;fontStyle=0;strokeWidth=2;resizeParent=0;resizeLast=1;shadow=0;dashed=0;align=center;arcSize=4;whiteSpace=wrap;html=1;" parent="1" vertex="1">
          <mxGeometry x="690" y="360" width="160" height="220" as="geometry" />
        </mxCell>
        <mxCell id="xCYvF6q1Z4s7tQrL5I1I-68" value="Loan_Approval_Id(PK)&lt;div&gt;Loan_Id(Fk)&lt;/div&gt;&lt;div&gt;interest_rate&lt;/div&gt;&lt;div&gt;Loan_Tenure&lt;/div&gt;&lt;div&gt;Repayment_schedule&lt;/div&gt;&lt;div&gt;Installation_amount&lt;/div&gt;&lt;div&gt;approval_date&lt;/div&gt;&lt;div&gt;approval_amount&lt;/div&gt;&lt;div&gt;status&lt;/div&gt;&lt;div&gt;Due_Date[ ]&lt;/div&gt;" style="align=left;strokeColor=none;fillColor=none;spacingLeft=4;fontSize=12;verticalAlign=top;resizable=0;rotatable=0;part=1;html=1;" parent="xCYvF6q1Z4s7tQrL5I1I-67" vertex="1">
          <mxGeometry y="50" width="160" height="170" as="geometry" />
        </mxCell>
        <UserObject label="OneToMany" placeholders="1" name="Variable" id="xCYvF6q1Z4s7tQrL5I1I-76">
          <mxCell style="text;html=1;strokeColor=none;fillColor=none;align=center;verticalAlign=middle;whiteSpace=wrap;overflow=hidden;" parent="1" vertex="1">
            <mxGeometry x="540" y="-20" width="80" height="20" as="geometry" />
          </mxCell>
        </UserObject>
        <UserObject label="OneToOne" placeholders="1" name="Variable" id="xCYvF6q1Z4s7tQrL5I1I-77">
          <mxCell style="text;html=1;strokeColor=none;fillColor=none;align=center;verticalAlign=middle;whiteSpace=wrap;overflow=hidden;" parent="1" vertex="1">
            <mxGeometry x="770" y="300" width="80" height="20" as="geometry" />
          </mxCell>
        </UserObject>
        <mxCell id="xCYvF6q1Z4s7tQrL5I1I-79" value="Document" style="swimlane;childLayout=stackLayout;horizontal=1;startSize=50;horizontalStack=0;rounded=1;fontSize=14;fontStyle=0;strokeWidth=2;resizeParent=0;resizeLast=1;shadow=0;dashed=0;align=center;arcSize=4;whiteSpace=wrap;html=1;" parent="1" vertex="1">
          <mxGeometry x="460" y="360" width="160" height="220" as="geometry" />
        </mxCell>
        <mxCell id="xCYvF6q1Z4s7tQrL5I1I-80" value="document_id(PK)&lt;div&gt;loan_applicationId(FK)&lt;/div&gt;&lt;div&gt;document_type&lt;/div&gt;&lt;div&gt;document_name&lt;/div&gt;&lt;div&gt;document_status&lt;/div&gt;&lt;div&gt;&lt;br&gt;&lt;/div&gt;" style="align=left;strokeColor=none;fillColor=none;spacingLeft=4;fontSize=12;verticalAlign=top;resizable=0;rotatable=0;part=1;html=1;" parent="xCYvF6q1Z4s7tQrL5I1I-79" vertex="1">
          <mxGeometry y="50" width="160" height="170" as="geometry" />
        </mxCell>
        <UserObject label="OneToMany" placeholders="1" name="Variable" id="xCYvF6q1Z4s7tQrL5I1I-82">
          <mxCell style="text;html=1;strokeColor=none;fillColor=none;align=center;verticalAlign=middle;whiteSpace=wrap;overflow=hidden;" parent="1" vertex="1">
            <mxGeometry x="540" y="320" width="80" height="20" as="geometry" />
          </mxCell>
        </UserObject>
        <mxCell id="xCYvF6q1Z4s7tQrL5I1I-93" value="Transaction" style="swimlane;childLayout=stackLayout;horizontal=1;startSize=50;horizontalStack=0;rounded=1;fontSize=14;fontStyle=0;strokeWidth=2;resizeParent=0;resizeLast=1;shadow=0;dashed=0;align=center;arcSize=4;whiteSpace=wrap;html=1;" parent="1" vertex="1">
          <mxGeometry x="680" y="648" width="160" height="200" as="geometry" />
        </mxCell>
        <mxCell id="xCYvF6q1Z4s7tQrL5I1I-94" value="transaction_id(PK)&lt;div&gt;loan_approval_id(FK)&lt;/div&gt;&lt;div&gt;transaction_date&lt;/div&gt;&lt;div&gt;transaction_amount&lt;/div&gt;&lt;div&gt;payment_method&lt;/div&gt;&lt;div&gt;total_amount&lt;/div&gt;&lt;div&gt;pending_amount&lt;/div&gt;&lt;div&gt;amount_paid&lt;/div&gt;&lt;div&gt;monthly_payment&lt;/div&gt;&lt;div&gt;status&lt;/div&gt;&lt;div&gt;&lt;br&gt;&lt;/div&gt;&lt;div&gt;&lt;br&gt;&lt;/div&gt;" style="align=left;strokeColor=none;fillColor=none;spacingLeft=4;fontSize=12;verticalAlign=top;resizable=0;rotatable=0;part=1;html=1;" parent="xCYvF6q1Z4s7tQrL5I1I-93" vertex="1">
          <mxGeometry y="50" width="160" height="150" as="geometry" />
        </mxCell>
        <mxCell id="xCYvF6q1Z4s7tQrL5I1I-118" style="edgeStyle=orthogonalEdgeStyle;rounded=0;orthogonalLoop=1;jettySize=auto;html=1;" parent="1" source="xCYvF6q1Z4s7tQrL5I1I-11" target="xCYvF6q1Z4s7tQrL5I1I-14" edge="1">
          <mxGeometry relative="1" as="geometry" />
        </mxCell>
        <mxCell id="xCYvF6q1Z4s7tQrL5I1I-126" style="edgeStyle=orthogonalEdgeStyle;rounded=0;orthogonalLoop=1;jettySize=auto;html=1;" parent="1" source="xCYvF6q1Z4s7tQrL5I1I-15" edge="1">
          <mxGeometry relative="1" as="geometry">
            <mxPoint x="760" y="360" as="targetPoint" />
            <Array as="points">
              <mxPoint x="761" y="160" />
            </Array>
          </mxGeometry>
        </mxCell>
        <mxCell id="xCYvF6q1Z4s7tQrL5I1I-127" style="edgeStyle=orthogonalEdgeStyle;rounded=0;orthogonalLoop=1;jettySize=auto;html=1;" parent="1" source="xCYvF6q1Z4s7tQrL5I1I-15" edge="1">
          <mxGeometry relative="1" as="geometry">
            <mxPoint x="510" y="360" as="targetPoint" />
          </mxGeometry>
        </mxCell>
        <UserObject label="OneToMany" placeholders="1" name="Variable" id="xCYvF6q1Z4s7tQrL5I1I-132">
          <mxCell style="text;html=1;strokeColor=none;fillColor=none;align=center;verticalAlign=middle;whiteSpace=wrap;overflow=hidden;" parent="1" vertex="1">
            <mxGeometry x="650" y="620" width="80" height="20" as="geometry" />
          </mxCell>
        </UserObject>
        <UserObject label="OneToMany" placeholders="1" name="Variable" id="xCYvF6q1Z4s7tQrL5I1I-133">
          <mxCell style="text;html=1;strokeColor=none;fillColor=none;align=center;verticalAlign=middle;whiteSpace=wrap;overflow=hidden;" parent="1" vertex="1">
            <mxGeometry x="210" y="420" width="80" height="20" as="geometry" />
          </mxCell>
        </UserObject>
        <mxCell id="JjB-6R9gmHPUE7ohi-1O-2" value="Insurance Application" style="swimlane;childLayout=stackLayout;horizontal=1;startSize=50;horizontalStack=0;rounded=1;fontSize=14;fontStyle=0;strokeWidth=2;resizeParent=0;resizeLast=1;shadow=0;dashed=0;align=center;arcSize=4;whiteSpace=wrap;html=1;" parent="1" vertex="1">
          <mxGeometry x="60" width="160" height="270" as="geometry" />
        </mxCell>
        <mxCell id="JjB-6R9gmHPUE7ohi-1O-3" value="insurance_id(PK)&lt;div&gt;insurance_type&lt;/div&gt;&lt;div&gt;full_name&lt;/div&gt;&lt;div&gt;customer_id(FK)&lt;/div&gt;&lt;div&gt;&lt;div&gt;full_name&lt;/div&gt;&lt;div&gt;date_of_birth&lt;/div&gt;&lt;div&gt;gender&lt;/div&gt;&lt;div&gt;martial_status&lt;/div&gt;&lt;div&gt;contact_info&lt;/div&gt;&lt;div&gt;address&lt;/div&gt;&lt;div&gt;employement_details[ ]&lt;/div&gt;&lt;div&gt;beneficiary_details&lt;/div&gt;&lt;div&gt;customer_id(FK)&lt;/div&gt;&lt;/div&gt;&lt;div&gt;&lt;br&gt;&lt;/div&gt;" style="align=left;strokeColor=none;fillColor=none;spacingLeft=4;fontSize=12;verticalAlign=top;resizable=0;rotatable=0;part=1;html=1;" parent="JjB-6R9gmHPUE7ohi-1O-2" vertex="1">
          <mxGeometry y="50" width="160" height="220" as="geometry" />
        </mxCell>
        <mxCell id="JjB-6R9gmHPUE7ohi-1O-6" value="Document" style="swimlane;childLayout=stackLayout;horizontal=1;startSize=50;horizontalStack=0;rounded=1;fontSize=14;fontStyle=0;strokeWidth=2;resizeParent=0;resizeLast=1;shadow=0;dashed=0;align=center;arcSize=4;whiteSpace=wrap;html=1;" parent="1" vertex="1">
          <mxGeometry x="220" y="440" width="160" height="220" as="geometry" />
        </mxCell>
        <mxCell id="JjB-6R9gmHPUE7ohi-1O-7" value="document_Id(PK)&lt;div&gt;insurance_applicationId(FK)&lt;/div&gt;&lt;div&gt;document_type&lt;/div&gt;&lt;div&gt;document_name&lt;/div&gt;&lt;div&gt;document_status&lt;/div&gt;" style="align=left;strokeColor=none;fillColor=none;spacingLeft=4;fontSize=12;verticalAlign=top;resizable=0;rotatable=0;part=1;html=1;" parent="JjB-6R9gmHPUE7ohi-1O-6" vertex="1">
          <mxGeometry y="50" width="160" height="170" as="geometry" />
        </mxCell>
        <mxCell id="JjB-6R9gmHPUE7ohi-1O-8" value="Insurance Approval" style="swimlane;childLayout=stackLayout;horizontal=1;startSize=50;horizontalStack=0;rounded=1;fontSize=14;fontStyle=0;strokeWidth=2;resizeParent=0;resizeLast=1;shadow=0;dashed=0;align=center;arcSize=4;whiteSpace=wrap;html=1;" parent="1" vertex="1">
          <mxGeometry x="20" y="460" width="160" height="225" as="geometry" />
        </mxCell>
        <mxCell id="JjB-6R9gmHPUE7ohi-1O-9" value="insurance_approval_id(PK)&lt;div&gt;insurance_id(FK)&lt;/div&gt;&lt;div&gt;insurance_amount&lt;/div&gt;&lt;div&gt;approval_status&lt;/div&gt;&lt;div&gt;&lt;div&gt;insurance_tenure&lt;/div&gt;&lt;div&gt;repayment_schedule&lt;/div&gt;&lt;div&gt;installation_amount&lt;/div&gt;&lt;div&gt;start_date&lt;/div&gt;&lt;div&gt;end_date&lt;/div&gt;&lt;div&gt;&lt;br&gt;&lt;/div&gt;&lt;div&gt;&lt;br&gt;&lt;/div&gt;&lt;/div&gt;" style="align=left;strokeColor=none;fillColor=none;spacingLeft=4;fontSize=12;verticalAlign=top;resizable=0;rotatable=0;part=1;html=1;" parent="JjB-6R9gmHPUE7ohi-1O-8" vertex="1">
          <mxGeometry y="50" width="160" height="175" as="geometry" />
        </mxCell>
        <mxCell id="JjB-6R9gmHPUE7ohi-1O-10" style="edgeStyle=orthogonalEdgeStyle;rounded=0;orthogonalLoop=1;jettySize=auto;html=1;exitX=0.5;exitY=1;exitDx=0;exitDy=0;entryX=0.438;entryY=-0.008;entryDx=0;entryDy=0;entryPerimeter=0;" parent="1" source="JjB-6R9gmHPUE7ohi-1O-9" edge="1">
          <mxGeometry relative="1" as="geometry">
            <mxPoint x="100.08000000000004" y="779.04" as="targetPoint" />
          </mxGeometry>
        </mxCell>
        <mxCell id="JjB-6R9gmHPUE7ohi-1O-11" value="Transaction" style="swimlane;childLayout=stackLayout;horizontal=1;startSize=50;horizontalStack=0;rounded=1;fontSize=14;fontStyle=0;strokeWidth=2;resizeParent=0;resizeLast=1;shadow=0;dashed=0;align=center;arcSize=4;whiteSpace=wrap;html=1;" parent="1" vertex="1">
          <mxGeometry x="30" y="758" width="160" height="240" as="geometry" />
        </mxCell>
        <mxCell id="JjB-6R9gmHPUE7ohi-1O-12" value="transaction_id(PK)&lt;div&gt;insurance_approval_Id(FK)&lt;/div&gt;&lt;div&gt;&lt;div&gt;transaction_date&lt;/div&gt;&lt;div&gt;transaction_amount&lt;/div&gt;&lt;div&gt;payment_method&lt;/div&gt;&lt;div&gt;total_amount&lt;/div&gt;&lt;div&gt;pending_amount&lt;/div&gt;&lt;div&gt;amount_paid&lt;/div&gt;&lt;div&gt;status&lt;/div&gt;&lt;/div&gt;&lt;div&gt;monthly_payment&lt;/div&gt;&lt;div&gt;&lt;br&gt;&lt;/div&gt;&lt;div&gt;&lt;br&gt;&lt;/div&gt;" style="align=left;strokeColor=none;fillColor=none;spacingLeft=4;fontSize=12;verticalAlign=top;resizable=0;rotatable=0;part=1;html=1;" parent="JjB-6R9gmHPUE7ohi-1O-11" vertex="1">
          <mxGeometry y="50" width="160" height="190" as="geometry" />
        </mxCell>
        <mxCell id="JjB-6R9gmHPUE7ohi-1O-16" value="OneToOne" style="text;html=1;align=center;verticalAlign=middle;whiteSpace=wrap;rounded=0;" parent="1" vertex="1">
          <mxGeometry x="30" y="430" width="60" height="30" as="geometry" />
        </mxCell>
        <mxCell id="xZHvqfO4f-B43cnSAKrK-18" style="edgeStyle=orthogonalEdgeStyle;rounded=0;orthogonalLoop=1;jettySize=auto;html=1;entryX=0;entryY=0.75;entryDx=0;entryDy=0;" edge="1" parent="1" source="JjB-6R9gmHPUE7ohi-1O-27" target="Agl1a2W_zwaDMf94fihy-5">
          <mxGeometry relative="1" as="geometry" />
        </mxCell>
        <mxCell id="JjB-6R9gmHPUE7ohi-1O-27" value="User&lt;div&gt;&lt;br&gt;&lt;/div&gt;" style="swimlane;childLayout=stackLayout;horizontal=1;startSize=50;horizontalStack=0;rounded=1;fontSize=14;fontStyle=0;strokeWidth=2;resizeParent=0;resizeLast=1;shadow=0;dashed=0;align=center;arcSize=4;whiteSpace=wrap;html=1;" parent="1" vertex="1">
          <mxGeometry x="320" y="-480" width="160" height="170" as="geometry" />
        </mxCell>
        <mxCell id="JjB-6R9gmHPUE7ohi-1O-28" value="user_id(PK)&lt;div&gt;username&lt;/div&gt;&lt;div&gt;email&lt;/div&gt;&lt;div&gt;password&lt;/div&gt;&lt;div&gt;full_name&lt;/div&gt;&lt;div&gt;phone_number&lt;/div&gt;&lt;div&gt;&lt;br&gt;&lt;/div&gt;&lt;div&gt;&lt;br&gt;&lt;/div&gt;" style="align=left;strokeColor=none;fillColor=none;spacingLeft=4;fontSize=12;verticalAlign=top;resizable=0;rotatable=0;part=1;html=1;" parent="JjB-6R9gmHPUE7ohi-1O-27" vertex="1">
          <mxGeometry y="50" width="160" height="120" as="geometry" />
        </mxCell>
        <mxCell id="xZHvqfO4f-B43cnSAKrK-19" style="edgeStyle=orthogonalEdgeStyle;rounded=0;orthogonalLoop=1;jettySize=auto;html=1;exitX=0;exitY=0.5;exitDx=0;exitDy=0;entryX=1;entryY=0.75;entryDx=0;entryDy=0;" edge="1" parent="1" source="JjB-6R9gmHPUE7ohi-1O-29" target="Agl1a2W_zwaDMf94fihy-5">
          <mxGeometry relative="1" as="geometry" />
        </mxCell>
        <mxCell id="JjB-6R9gmHPUE7ohi-1O-29" value="Role&lt;div&gt;&lt;br&gt;&lt;/div&gt;" style="swimlane;childLayout=stackLayout;horizontal=1;startSize=50;horizontalStack=0;rounded=1;fontSize=14;fontStyle=0;strokeWidth=2;resizeParent=0;resizeLast=1;shadow=0;dashed=0;align=center;arcSize=4;whiteSpace=wrap;html=1;" parent="1" vertex="1">
          <mxGeometry x="530" y="-620" width="160" height="100" as="geometry" />
        </mxCell>
        <mxCell id="JjB-6R9gmHPUE7ohi-1O-30" value="role_id(PK)&lt;div&gt;role_name&lt;/div&gt;&lt;div&gt;&lt;br&gt;&lt;div&gt;&lt;br&gt;&lt;/div&gt;&lt;/div&gt;" style="align=left;strokeColor=none;fillColor=none;spacingLeft=4;fontSize=12;verticalAlign=top;resizable=0;rotatable=0;part=1;html=1;" parent="JjB-6R9gmHPUE7ohi-1O-29" vertex="1">
          <mxGeometry y="50" width="160" height="50" as="geometry" />
        </mxCell>
        <mxCell id="Agl1a2W_zwaDMf94fihy-4" value="User_role" style="swimlane;childLayout=stackLayout;horizontal=1;startSize=50;horizontalStack=0;rounded=1;fontSize=14;fontStyle=0;strokeWidth=2;resizeParent=0;resizeLast=1;shadow=0;dashed=0;align=center;arcSize=4;whiteSpace=wrap;html=1;" parent="1" vertex="1">
          <mxGeometry x="254" y="-700" width="160" height="140" as="geometry" />
        </mxCell>
        <mxCell id="Agl1a2W_zwaDMf94fihy-5" value="&lt;div&gt;user_role_id(PK)&lt;/div&gt;user_id(FK)&lt;div&gt;role_id(FK)&lt;/div&gt;" style="align=left;strokeColor=none;fillColor=none;spacingLeft=4;fontSize=12;verticalAlign=top;resizable=0;rotatable=0;part=1;html=1;" parent="Agl1a2W_zwaDMf94fihy-4" vertex="1">
          <mxGeometry y="50" width="160" height="90" as="geometry" />
        </mxCell>
        <mxCell id="Agl1a2W_zwaDMf94fihy-8" style="edgeStyle=orthogonalEdgeStyle;rounded=0;orthogonalLoop=1;jettySize=auto;html=1;exitX=0.5;exitY=1;exitDx=0;exitDy=0;" parent="1" source="JjB-6R9gmHPUE7ohi-1O-28" target="xCYvF6q1Z4s7tQrL5I1I-10" edge="1">
          <mxGeometry relative="1" as="geometry" />
        </mxCell>
        <mxCell id="Agl1a2W_zwaDMf94fihy-9" value="OneToOne" style="text;html=1;align=center;verticalAlign=middle;whiteSpace=wrap;rounded=0;" parent="1" vertex="1">
          <mxGeometry x="320" y="-250" width="60" height="30" as="geometry" />
        </mxCell>
        <mxCell id="xZHvqfO4f-B43cnSAKrK-12" style="edgeStyle=orthogonalEdgeStyle;rounded=0;orthogonalLoop=1;jettySize=auto;html=1;exitX=0.5;exitY=1;exitDx=0;exitDy=0;entryX=0.444;entryY=-0.004;entryDx=0;entryDy=0;entryPerimeter=0;" edge="1" parent="1" source="JjB-6R9gmHPUE7ohi-1O-3" target="JjB-6R9gmHPUE7ohi-1O-8">
          <mxGeometry relative="1" as="geometry" />
        </mxCell>
        <mxCell id="xZHvqfO4f-B43cnSAKrK-13" style="edgeStyle=orthogonalEdgeStyle;rounded=0;orthogonalLoop=1;jettySize=auto;html=1;exitX=0;exitY=0.5;exitDx=0;exitDy=0;" edge="1" parent="1" source="xCYvF6q1Z4s7tQrL5I1I-11" target="JjB-6R9gmHPUE7ohi-1O-2">
          <mxGeometry relative="1" as="geometry" />
        </mxCell>
        <mxCell id="xZHvqfO4f-B43cnSAKrK-14" style="edgeStyle=orthogonalEdgeStyle;rounded=0;orthogonalLoop=1;jettySize=auto;html=1;exitX=0.5;exitY=1;exitDx=0;exitDy=0;entryX=0.438;entryY=-0.021;entryDx=0;entryDy=0;entryPerimeter=0;" edge="1" parent="1" source="JjB-6R9gmHPUE7ohi-1O-3" target="JjB-6R9gmHPUE7ohi-1O-6">
          <mxGeometry relative="1" as="geometry" />
        </mxCell>
        <mxCell id="xZHvqfO4f-B43cnSAKrK-15" value="&lt;span style=&quot;color: rgba(0, 0, 0, 0); font-family: monospace; font-size: 0px; text-align: start;&quot;&gt;%3CmxGraphModel%3E%3Croot%3E%3CmxCell%20id%3D%220%22%2F%3E%3CmxCell%20id%3D%221%22%20parent%3D%220%22%2F%3E%3CUserObject%20label%3D%22OneToMany%22%20placeholders%3D%221%22%20name%3D%22Variable%22%20id%3D%222%22%3E%3CmxCell%20style%3D%22text%3Bhtml%3D1%3BstrokeColor%3Dnone%3BfillColor%3Dnone%3Balign%3Dcenter%3BverticalAlign%3Dmiddle%3BwhiteSpace%3Dwrap%3Boverflow%3Dhidden%3B%22%20vertex%3D%221%22%20parent%3D%221%22%3E%3CmxGeometry%20x%3D%22650%22%20y%3D%22740%22%20width%3D%2280%22%20height%3D%2220%22%20as%3D%22geometry%22%2F%3E%3C%2FmxCell%3E%3C%2FUserObject%3E%3C%2Froot%3E%3C%2FmxGraphModel%3E&lt;/span&gt;" style="text;html=1;align=center;verticalAlign=middle;resizable=0;points=[];autosize=1;strokeColor=none;fillColor=none;" vertex="1" parent="1">
          <mxGeometry x="120" y="738" width="20" height="30" as="geometry" />
        </mxCell>
        <UserObject label="OneToMany" placeholders="1" name="Variable" id="xZHvqfO4f-B43cnSAKrK-16">
          <mxCell style="text;html=1;strokeColor=none;fillColor=none;align=center;verticalAlign=middle;whiteSpace=wrap;overflow=hidden;" vertex="1" parent="1">
            <mxGeometry x="110" y="738" width="80" height="20" as="geometry" />
          </mxCell>
        </UserObject>
        <mxCell id="xZHvqfO4f-B43cnSAKrK-26" style="edgeStyle=orthogonalEdgeStyle;rounded=0;orthogonalLoop=1;jettySize=auto;html=1;entryX=0.563;entryY=0.02;entryDx=0;entryDy=0;entryPerimeter=0;" edge="1" parent="1" source="xCYvF6q1Z4s7tQrL5I1I-68" target="xCYvF6q1Z4s7tQrL5I1I-93">
          <mxGeometry relative="1" as="geometry" />
        </mxCell>
        <mxCell id="xZHvqfO4f-B43cnSAKrK-28" value="OneToMany" style="text;html=1;align=center;verticalAlign=middle;whiteSpace=wrap;rounded=0;" vertex="1" parent="1">
          <mxGeometry x="260" y="-520" width="60" height="30" as="geometry" />
        </mxCell>
        <mxCell id="xZHvqfO4f-B43cnSAKrK-29" value="OneToMany" style="text;html=1;align=center;verticalAlign=middle;whiteSpace=wrap;rounded=0;" vertex="1" parent="1">
          <mxGeometry x="450" y="-620" width="60" height="30" as="geometry" />
        </mxCell>
      </root>
    </mxGraphModel>
  </diagram>
</mxfile>
